HIERARCHY
ROOT Hips
{
	OFFSET 0.000000 0.000000 0.000000
	CHANNELS 6 Xposition Yposition Zposition Xrotation Yrotation Zrotation
	JOINT LeftUpLeg_virtual
	{
		OFFSET 0.000000 0.000000 0.000000
		CHANNELS 3 Xrotation Yrotation Zrotation
		JOINT LeftUpLeg
		{
			OFFSET 10.205400 -3.823500 0.155100
			CHANNELS 3 Xrotation Yrotation Zrotation
			JOINT LeftLeg
			{
				OFFSET 0.708757 -12.982077 0.567790
				CHANNELS 3 Xrotation Yrotation Zrotation
				JOINT LeftFoot
				{
					OFFSET -0.708756 -10.717838 -2.184338
					CHANNELS 3 Xrotation Yrotation Zrotation
					JOINT LeftToeBase
					{
						OFFSET 0.108149 -7.191104 7.560241
						CHANNELS 3 Xrotation Yrotation Zrotation
						JOINT LeftToe_End
						{
							OFFSET 0.070230 0.081724 4.490308
							CHANNELS 3 Xrotation Yrotation Zrotation
							End Site
							{
								OFFSET 0 0 0
							}
						}
					}
				}
			}
		}
	}
	JOINT RightUpLeg_virtual
	{
		OFFSET 0.000000 0.000000 0.000000
		CHANNELS 3 Xrotation Yrotation Zrotation
		JOINT RightUpLeg
		{
			OFFSET -10.205400 -3.823500 0.005500
			CHANNELS 3 Xrotation Yrotation Zrotation
			JOINT RightLeg
			{
				OFFSET -0.708756 -12.982134 0.610632
				CHANNELS 3 Xrotation Yrotation Zrotation
				JOINT RightFoot
				{
					OFFSET 0.708754 -10.717769 -1.945823
					CHANNELS 3 Xrotation Yrotation Zrotation
					JOINT RightToeBase
					{
						OFFSET -0.108140 -7.191069 7.372968
						CHANNELS 3 Xrotation Yrotation Zrotation
						JOINT RightToe_End
						{
							OFFSET -0.070227 0.081735 4.479403
							CHANNELS 3 Xrotation Yrotation Zrotation
							End Site
							{
								OFFSET 0 0 0
							}
						}
					}
				}
			}
		}
	}
	JOINT Spine_virtual
	{
		OFFSET 0.000000 0.000000 0.000000
		CHANNELS 3 Xrotation Yrotation Zrotation
		JOINT Spine
		{
			OFFSET 0.000000 6.876099 0.125700
			CHANNELS 3 Xrotation Yrotation Zrotation
			JOINT Spine1
			{
				OFFSET 0.000000 5.730043 0.104720
				CHANNELS 3 Xrotation Yrotation Zrotation
				JOINT Spine1_split
				{
					OFFSET 0.000000 5.730043 0.104720
					CHANNELS 3 Xrotation Yrotation Zrotation
					JOINT Spine2
					{
						OFFSET 0.000000 5.730043 0.104720
						CHANNELS 3 Xrotation Yrotation Zrotation
						JOINT Neck_virtual
						{
							OFFSET 0.000000 0.000000 0.000000
							CHANNELS 3 Xrotation Yrotation Zrotation
							JOINT Neck
							{
								OFFSET 0.000000 10.314075 0.188496
								CHANNELS 3 Xrotation Yrotation Zrotation
								JOINT Head
								{
									OFFSET 0.000000 7.643700 -2.377400
									CHANNELS 3 Xrotation Yrotation Zrotation
									JOINT HeadTop_End
									{
										OFFSET 0.000000 43.788605 -13.619600
										CHANNELS 3 Xrotation Yrotation Zrotation
										End Site
										{
											OFFSET 0 0 0
										}
									}
								}
							}
						}
						JOINT LeftShoulder_virtual
						{
							OFFSET 0.000000 0.000000 0.000000
							CHANNELS 3 Xrotation Yrotation Zrotation
							JOINT LeftShoulder
							{
								OFFSET 2.196100 4.412489 0.087492
								CHANNELS 3 Xrotation Yrotation Zrotation
								JOINT LeftShoulder_split
								{
									OFFSET 2.196100 4.412489 0.087492
									CHANNELS 3 Xrotation Yrotation Zrotation
									JOINT LeftArm
									{
										OFFSET 8.771219 -2.981674 -0.026999
										CHANNELS 3 Xrotation Yrotation Zrotation
										JOINT LeftForeArm
										{
											OFFSET 8.512804 0.000000 -0.000000
											CHANNELS 3 Xrotation Yrotation Zrotation
											JOINT LeftHand
											{
												OFFSET 18.484802 0.000000 -0.000000
												CHANNELS 3 Xrotation Yrotation Zrotation
												End Site
												{
													OFFSET 0 0 0
												}
											}
										}
									}
								}
							}
						}
						JOINT RightShoulder_virtual
						{
							OFFSET 0.000000 0.000000 0.000000
							CHANNELS 3 Xrotation Yrotation Zrotation
							JOINT RightShoulder
							{
								OFFSET -2.196100 4.412496 0.070690
								CHANNELS 3 Xrotation Yrotation Zrotation
								JOINT RightShoulder_split
								{
									OFFSET -2.196100 4.412496 0.070690
									CHANNELS 3 Xrotation Yrotation Zrotation
									JOINT RightArm
									{
										OFFSET -8.771282 -2.981682 -0.094208
										CHANNELS 3 Xrotation Yrotation Zrotation
										JOINT RightForeArm
										{
											OFFSET -8.494598 0.000000 0.000000
											CHANNELS 3 Xrotation Yrotation Zrotation
											JOINT RightHand
											{
												OFFSET -18.483803 0.000000 0.000001
												CHANNELS 3 Xrotation Yrotation Zrotation
												End Site
												{
													OFFSET 0 0 0
												}
											}
										}
									}
								}
							}
						}
					}
				}
			}
		}
	}
}
MOTION
Frames: 4
Frame Time: 0.03333333
3.090087 13.567785 -9.581728 0.000000 0.000000 0.000000 4.464855 22.061864 0.330240 -1.464551 -30.729062 32.520293 101.651609 -5.131091 -10.115638 7.684957 24.118586 -38.669382 -29.612620 -7.020209 -22.871092 0.000000 0.000000 0.000000 7.278979 21.010663 -0.306357 -27.295685 -4.526082 -21.660804 119.940799 11.477313 -12.078413 9.846840 -26.612184 41.483810 -3.350678 13.130755 -32.013103 0.000000 0.000000 0.000000 7.745832 21.389764 -0.736377 7.917962 1.820071 3.426735 -5.226291 -1.235076 0.020942 0.009222 -0.084199 0.077396 0.000000 0.000000 0.000000 -3.270776 0.719337 0.402787 -1.178053 10.246167 4.750069 3.524679 6.544678 -9.399058 0.000000 0.000000 0.000000 -5.573053 -0.270362 -0.980566 -1.890809 -3.035618 -15.992818 -0.928849 1.065824 -3.016003 15.047175 -16.053376 -56.221059 5.162305 -27.677719 3.591307 0.000000 0.000000 0.000000 -2.899224 -0.022271 0.128684 -0.506888 -1.346975 15.765029 -3.780540 0.031214 1.299418 7.839222 7.828527 58.438067 1.834888 18.768439 5.787130 0.000000 0.000000 0.000000 
3.074185 13.569812 -9.579824 0.000000 0.000000 0.000000 4.535431 22.298712 0.294273 -1.575495 -30.745407 32.512903 101.678164 -5.239033 -10.080701 8.085683 23.852322 -39.194211 -30.436604 -6.971498 -22.655244 0.000000 0.000000 0.000000 7.319538 21.033219 -0.350414 -27.483361 -4.338114 -21.688207 119.967191 11.477405 -12.103345 10.063933 -26.545469 41.545541 -3.161812 13.024197 -31.922071 0.000000 0.000000 0.000000 7.753354 21.460381 -0.792892 7.875147 1.790040 3.419732 -5.258110 -1.206175 0.046563 -0.020312 -0.076225 0.093840 0.000000 0.000000 0.000000 -3.352629 0.724030 0.426817 -1.040951 10.250531 4.673635 3.601702 6.181327 -9.450792 0.000000 0.000000 0.000000 -5.626472 -0.242743 -0.965335 -1.886965 -2.814799 -15.999421 -0.946986 1.166534 -2.956611 15.120417 -15.608207 -56.137441 5.301819 -27.908576 3.549018 0.000000 0.000000 0.000000 -2.932367 0.006853 0.136996 -0.539184 -1.401724 15.827485 -4.099052 -0.306517 1.162908 7.794199 7.526292 58.394620 1.825741 18.635118 5.847857 0.000000 0.000000 0.000000 
3.052577 13.588122 -9.578941 0.000000 0.000000 0.000000 4.650070 22.434014 0.235286 -1.534376 -30.878951 32.506817 101.845422 -5.362358 -10.146626 8.567780 23.733845 -39.586335 -31.898141 -6.780103 -22.445199 0.000000 0.000000 0.000000 7.407134 21.088928 -0.417651 -27.790247 -4.128409 -21.730155 120.012694 11.482818 -12.155952 10.178816 -26.445562 41.560629 -2.847607 12.933829 -32.053494 0.000000 0.000000 0.000000 7.850559 21.501473 -0.887449 7.813718 1.733299 3.411096 -5.294112 -1.140466 0.087699 -0.010986 -0.061855 0.095344 0.000000 0.000000 0.000000 -3.462973 0.753215 0.479294 -0.903749 10.260814 4.466658 3.681052 5.572501 -9.580951 0.000000 0.000000 0.000000 -5.701791 -0.194996 -0.945012 -1.872062 -2.462011 -16.039321 -1.028227 1.039677 -2.863826 15.399701 -14.594811 -56.041456 5.323432 -29.315691 3.379869 0.000000 0.000000 0.000000 -2.976324 0.066091 0.164866 -0.560957 -1.460631 15.943900 -4.317506 -0.425849 0.937404 7.662335 6.757559 58.315199 1.764331 18.628588 5.917275 0.000000 0.000000 0.000000 
3.026366 13.613270 -9.574265 0.000000 0.000000 0.000000 4.774703 22.484293 0.176606 -1.352545 -31.007693 32.428857 102.092791 -5.331673 -10.425607 8.656878 24.102413 -39.470526 -32.957831 -6.558337 -22.487993 0.000000 0.000000 0.000000 7.536484 21.136191 -0.487621 -28.118745 -3.963260 -21.761966 120.079493 11.445408 -12.182349 10.130166 -26.391518 41.439369 -2.568654 12.916538 -32.359647 0.000000 0.000000 0.000000 8.001250 21.482444 -0.986639 7.753352 1.662341 3.407107 -5.336500 -1.048100 0.125214 0.028382 -0.042164 0.083422 0.000000 0.000000 0.000000 -3.601280 0.804399 0.543974 -0.784796 10.272871 4.150908 3.758032 4.730560 -9.760503 0.000000 0.000000 0.000000 -5.794350 -0.129017 -0.928149 -1.858589 -2.033089 -16.096210 -1.115919 0.706881 -2.661177 15.812475 -13.011064 -55.992993 5.258535 -31.633345 3.142930 0.000000 0.000000 0.000000 -3.031604 0.155586 0.204501 -0.571246 -1.515494 16.106838 -4.496780 -0.500048 0.645333 7.453627 5.620543 58.160604 1.674736 18.652832 5.979215 0.000000 0.000000 0.000000 
